<?xml version="1.0" encoding="UTF-8"?>
<svg width="1440px" height="1041px" viewBox="0 0 1440 1041" version="1.1" xmlns="http://www.w3.org/2000/svg" xmlns:xlink="http://www.w3.org/1999/xlink">
    <!-- Generator: sketchtool 53.2 (72643) - https://sketchapp.com -->
    <title>277D79FE-470A-4169-BA0F-2ED8466063F2</title>
    <desc>Created with sketchtool.</desc>
    <defs>
        <path d="M1477,1164 L1477,1095.6224 C1077.22144,958.4576 648.328,884 202.12,884 C146.824,884 91.7584,885.152 37,887.4176 L37,1164 L4.03896783e-28,1164 L4.03896783e-28,0 L37,0 L37,55.3775 C436.77856,192.5423 865.672,266.9999 1311.88,266.9999 C1367.176,266.9999 1422.2416,265.8479 1477,263.5823 L1477,0 L1550,0 L1550,1164 L1477,1164 Z" id="path-1"></path>
        <linearGradient x1="52.341594%" y1="68.3247538%" x2="16.5286218%" y2="-30.2484166%" id="linearGradient-3">
            <stop stop-color="#56567E" stop-opacity="0" offset="0%"></stop>
            <stop stop-color="#FFFFFF" offset="100%"></stop>
        </linearGradient>
    </defs>
    <g id="💻-Desktop---Careers" stroke="none" stroke-width="1" fill="none" fill-rule="evenodd">
        <g id="Ozow-Marketing-Site-Desktop-Careers--Empty-page" transform="translate(0.000000, -3377.000000)">
            <g id="Path-2" transform="translate(-37.000000, 3322.000000)">
                <g>
                    <g>
                        <g>
                            <mask id="mask-2" fill="white">
                                <use xlink:href="#path-1"></use>
                            </mask>
                            <use id="Mask" fill="#FFFFFF" xlink:href="#path-1"></use>
                            <polygon fill="url(#linearGradient-3)" opacity="0.25" mask="url(#mask-2)" transform="translate(193.000000, 594.000000) rotate(-180.000000) translate(-193.000000, -594.000000) " points="-47.0699122 117 757 117 447.754634 1071 -371 1052.73191"></polygon>
                        </g>
                    </g>
                </g>
            </g>
        </g>
    </g>
</svg>